<svg xmlns="http://www.w3.org/2000/svg" xmlns:xlink="http://www.w3.org/1999/xlink" width="500" zoomAndPan="magnify" viewBox="0 0 375 374.999991" height="500" preserveAspectRatio="xMidYMid meet" version="1.0"><path fill="#94acff" d="M 223.011719 260.308594 C 221.992188 260.308594 220.996094 260.152344 220.027344 259.835938 C 219.058594 259.519531 218.160156 259.058594 217.339844 258.457031 C 216.515625 257.855469 215.808594 257.140625 215.214844 256.3125 C 214.621094 255.484375 214.167969 254.585938 213.863281 253.617188 C 213.554688 252.644531 213.410156 251.652344 213.421875 250.632812 C 213.433594 249.617188 213.601562 248.625 213.933594 247.660156 C 214.261719 246.699219 214.730469 245.808594 215.34375 244.996094 C 215.957031 244.183594 216.683594 243.484375 217.519531 242.902344 C 222.847656 238.847656 239.582031 205.613281 234.492188 173.617188 C 230.617188 149.277344 215.109375 132.222656 188.394531 122.925781 C 157.386719 112.140625 136.328125 95.035156 125.792969 72.195312 C 110.960938 39.960938 123.039062 8.449219 123.550781 7.144531 C 123.789062 6.574219 124.082031 6.03125 124.425781 5.519531 C 124.769531 5.003906 125.160156 4.527344 125.597656 4.089844 C 126.035156 3.652344 126.511719 3.261719 127.023438 2.914062 C 127.535156 2.566406 128.078125 2.273438 128.648438 2.03125 C 129.21875 1.789062 129.808594 1.605469 130.414062 1.476562 C 131.019531 1.351562 131.632812 1.28125 132.253906 1.273438 C 132.871094 1.261719 133.488281 1.3125 134.097656 1.421875 C 134.707031 1.535156 135.300781 1.699219 135.878906 1.925781 C 136.457031 2.148438 137.007812 2.425781 137.527344 2.757812 C 138.050781 3.089844 138.539062 3.46875 138.988281 3.894531 C 139.4375 4.320312 139.84375 4.78125 140.203125 5.285156 C 140.5625 5.789062 140.871094 6.324219 141.125 6.886719 C 141.382812 7.449219 141.582031 8.03125 141.726562 8.632812 C 141.867188 9.234375 141.949219 9.84375 141.976562 10.460938 C 142 11.082031 141.964844 11.695312 141.867188 12.304688 C 141.773438 12.917969 141.621094 13.511719 141.410156 14.09375 C 141.277344 14.4375 131.839844 39.722656 143.308594 64.390625 C 151.621094 82.285156 168.914062 95.871094 194.710938 104.847656 C 237.835938 119.859375 250.625 149.910156 253.707031 172.488281 C 255.992188 189.058594 253.847656 208.132812 247.664062 226.199219 C 243.550781 238.273438 236.324219 253.121094 228.496094 258.570312 C 226.851562 259.726562 225.023438 260.304688 223.011719 260.308594 Z M 223.011719 260.308594 " fill-opacity="1" fill-rule="nonzero"/><path fill="#94acff" d="M 128.433594 373.234375 C 127.855469 373.234375 127.277344 373.183594 126.707031 373.078125 C 126.136719 372.972656 125.582031 372.816406 125.039062 372.609375 C 124.496094 372.402344 123.976562 372.152344 123.480469 371.851562 C 122.984375 371.550781 122.519531 371.210938 122.085938 370.824219 C 121.652344 370.441406 121.257812 370.023438 120.898438 369.566406 C 120.542969 369.109375 120.226562 368.625 119.957031 368.113281 C 119.6875 367.601562 119.46875 367.070312 119.292969 366.515625 C 119.121094 365.964844 119 365.402344 118.929688 364.828125 C 114.925781 332.152344 118.238281 306.578125 128.796875 288.917969 C 137.488281 274.339844 153.316406 267.421875 154.507812 267.027344 L 166.621094 275.898438 C 166.621094 275.898438 170.402344 280.738281 170.566406 280.671875 C 170.320312 280.769531 149.523438 290.65625 144.320312 300.359375 C 139.117188 310.066406 133.804688 328.648438 137.957031 362.496094 C 138.035156 363.167969 138.046875 363.84375 137.984375 364.515625 C 137.921875 365.191406 137.789062 365.851562 137.585938 366.5 C 137.382812 367.144531 137.117188 367.761719 136.78125 368.351562 C 136.449219 368.941406 136.054688 369.492188 135.605469 369.996094 C 135.15625 370.503906 134.65625 370.957031 134.109375 371.359375 C 133.5625 371.761719 132.980469 372.101562 132.363281 372.378906 C 131.742188 372.660156 131.101562 372.871094 130.4375 373.011719 C 129.777344 373.15625 129.105469 373.226562 128.425781 373.226562 Z M 128.433594 373.234375 " fill-opacity="1" fill-rule="nonzero"/><path fill="#f65dbb" d="M 235.691406 375.007812 C 235.296875 375.007812 234.90625 374.984375 234.515625 374.9375 C 234.125 374.890625 233.742188 374.816406 233.359375 374.722656 C 232.980469 374.628906 232.605469 374.507812 232.238281 374.367188 C 231.871094 374.226562 231.515625 374.0625 231.167969 373.878906 C 230.824219 373.695312 230.488281 373.488281 230.167969 373.261719 C 229.847656 373.039062 229.539062 372.792969 229.25 372.53125 C 228.957031 372.265625 228.683594 371.984375 228.429688 371.6875 C 228.171875 371.390625 227.933594 371.082031 227.71875 370.753906 C 227.5 370.429688 227.300781 370.089844 227.125 369.738281 C 226.949219 369.390625 226.796875 369.03125 226.664062 368.660156 C 226.53125 368.292969 226.421875 367.914062 226.335938 367.535156 C 226.25 367.152344 226.191406 366.765625 226.152344 366.375 C 226.113281 365.984375 226.101562 365.59375 226.109375 365.203125 C 226.121094 364.808594 226.15625 364.417969 226.210938 364.03125 C 226.269531 363.644531 226.351562 363.261719 226.457031 362.882812 C 226.5625 362.507812 226.691406 362.136719 226.84375 361.773438 C 227.03125 361.316406 236.972656 336.34375 226.09375 311.453125 C 218.203125 293.402344 201.222656 279.398438 175.632812 269.835938 C 133.128906 253.933594 121.394531 225.722656 118.929688 204.859375 C 114.925781 169.65625 137.535156 122.664062 150.675781 116.027344 C 156.6875 112.992188 169.269531 123.574219 167.21875 125.28125 C 163.847656 128.085938 134.511719 172.117188 138.011719 202.683594 C 140.605469 225.3125 155.535156 241.875 182.417969 251.910156 C 213.167969 263.394531 233.832031 280.949219 243.839844 304.0625 C 257.925781 336.605469 245.140625 367.820312 244.589844 369.132812 C 244.222656 370.007812 243.734375 370.808594 243.128906 371.539062 C 242.523438 372.269531 241.824219 372.894531 241.03125 373.417969 C 240.242188 373.941406 239.390625 374.339844 238.480469 374.609375 C 237.570312 374.878906 236.640625 375.011719 235.691406 375.007812 Z M 235.691406 375.007812 " fill-opacity="1" fill-rule="nonzero"/><path fill="#f65dbb" d="M 220.941406 109.832031 L 201.417969 100.578125 C 201.128906 100.445312 200.902344 100.238281 200.742188 99.96875 C 200.578125 99.695312 200.503906 99.398438 200.523438 99.082031 C 200.542969 98.761719 200.648438 98.476562 200.839844 98.222656 C 201.035156 97.972656 201.28125 97.792969 201.582031 97.691406 L 209.683594 94.960938 C 212.757812 93.929688 215.617188 92.472656 218.257812 90.59375 C 220.902344 88.714844 223.210938 86.492188 225.191406 83.925781 C 226.515625 82.191406 227.722656 80.375 228.816406 78.488281 C 235.03125 67.820312 241.726562 47.878906 238.304688 13.519531 C 238.242188 12.894531 238.242188 12.269531 238.304688 11.644531 C 238.367188 11.019531 238.488281 10.40625 238.671875 9.804688 C 238.855469 9.207031 239.09375 8.628906 239.390625 8.074219 C 239.6875 7.519531 240.035156 7 240.433594 6.515625 C 240.832031 6.03125 241.277344 5.585938 241.761719 5.1875 C 242.25 4.789062 242.769531 4.441406 243.324219 4.148438 C 243.878906 3.851562 244.457031 3.609375 245.058594 3.429688 C 245.664062 3.246094 246.277344 3.125 246.902344 3.0625 C 247.53125 3 248.15625 3 248.78125 3.058594 C 249.410156 3.121094 250.023438 3.242188 250.625 3.425781 C 251.226562 3.605469 251.808594 3.84375 252.363281 4.140625 C 252.917969 4.4375 253.4375 4.785156 253.925781 5.179688 C 254.414062 5.578125 254.855469 6.019531 255.253906 6.503906 C 255.65625 6.992188 256.003906 7.511719 256.300781 8.0625 C 256.597656 8.617188 256.839844 9.195312 257.023438 9.792969 C 257.207031 10.394531 257.328125 11.007812 257.390625 11.632812 C 264.4375 82.5625 232.976562 105.027344 224.640625 109.6875 C 224.070312 110.007812 223.460938 110.183594 222.808594 110.210938 C 222.15625 110.234375 221.53125 110.109375 220.941406 109.832031 Z M 220.941406 109.832031 " fill-opacity="1" fill-rule="nonzero"/><path fill="#f65dbb" d="M 248.847656 44.84375 L 161.242188 44.84375 C 160.613281 44.84375 159.988281 44.78125 159.371094 44.660156 C 158.753906 44.535156 158.15625 44.355469 157.574219 44.113281 C 156.992188 43.875 156.441406 43.578125 155.917969 43.230469 C 155.394531 42.882812 154.910156 42.484375 154.464844 42.039062 C 154.019531 41.597656 153.621094 41.113281 153.269531 40.589844 C 152.921875 40.070312 152.625 39.519531 152.386719 38.9375 C 152.144531 38.355469 151.960938 37.757812 151.839844 37.144531 C 151.714844 36.527344 151.65625 35.90625 151.65625 35.277344 C 151.65625 34.648438 151.714844 34.027344 151.839844 33.410156 C 151.960938 32.792969 152.144531 32.195312 152.386719 31.617188 C 152.625 31.035156 152.921875 30.484375 153.269531 29.960938 C 153.621094 29.441406 154.019531 28.957031 154.464844 28.511719 C 154.910156 28.070312 155.394531 27.671875 155.917969 27.324219 C 156.441406 26.972656 156.992188 26.679688 157.574219 26.4375 C 158.15625 26.199219 158.753906 26.015625 159.371094 25.894531 C 159.988281 25.773438 160.613281 25.710938 161.242188 25.710938 L 248.847656 25.710938 C 249.476562 25.710938 250.101562 25.773438 250.71875 25.894531 C 251.335938 26.015625 251.933594 26.199219 252.515625 26.4375 C 253.097656 26.679688 253.652344 26.972656 254.175781 27.324219 C 254.699219 27.671875 255.179688 28.070312 255.625 28.511719 C 256.070312 28.957031 256.46875 29.441406 256.820312 29.960938 C 257.167969 30.484375 257.464844 31.035156 257.707031 31.617188 C 257.945312 32.195312 258.128906 32.792969 258.25 33.410156 C 258.375 34.027344 258.433594 34.648438 258.433594 35.277344 C 258.433594 35.90625 258.375 36.527344 258.25 37.144531 C 258.128906 37.757812 257.945312 38.355469 257.707031 38.9375 C 257.464844 39.519531 257.167969 40.070312 256.820312 40.589844 C 256.46875 41.113281 256.070312 41.597656 255.625 42.039062 C 255.179688 42.484375 254.699219 42.882812 254.175781 43.230469 C 253.652344 43.578125 253.097656 43.875 252.515625 44.113281 C 251.933594 44.355469 251.335938 44.535156 250.71875 44.660156 C 250.101562 44.78125 249.476562 44.84375 248.847656 44.84375 Z M 248.847656 44.84375 " fill-opacity="1" fill-rule="nonzero"/><path fill="#94acff" d="M 200.902344 78.816406 L 135.019531 78.816406 C 134.390625 78.816406 133.765625 78.753906 133.148438 78.632812 C 132.53125 78.507812 131.933594 78.328125 131.351562 78.085938 C 130.769531 77.847656 130.21875 77.550781 129.695312 77.203125 C 129.171875 76.855469 128.6875 76.457031 128.242188 76.011719 C 127.796875 75.570312 127.398438 75.085938 127.046875 74.5625 C 126.699219 74.042969 126.402344 73.488281 126.164062 72.910156 C 125.921875 72.328125 125.738281 71.730469 125.617188 71.117188 C 125.496094 70.5 125.433594 69.878906 125.433594 69.25 C 125.433594 68.621094 125.496094 68 125.617188 67.382812 C 125.738281 66.765625 125.921875 66.167969 126.164062 65.589844 C 126.402344 65.007812 126.699219 64.457031 127.046875 63.933594 C 127.398438 63.414062 127.796875 62.929688 128.242188 62.484375 C 128.6875 62.039062 129.171875 61.644531 129.695312 61.296875 C 130.21875 60.945312 130.769531 60.652344 131.351562 60.410156 C 131.933594 60.171875 132.53125 59.988281 133.148438 59.867188 C 133.765625 59.746094 134.390625 59.683594 135.019531 59.683594 L 200.902344 59.683594 C 201.53125 59.683594 202.152344 59.746094 202.769531 59.867188 C 203.386719 59.988281 203.988281 60.171875 204.570312 60.410156 C 205.152344 60.652344 205.703125 60.945312 206.226562 61.296875 C 206.75 61.644531 207.234375 62.039062 207.679688 62.484375 C 208.125 62.929688 208.523438 63.414062 208.871094 63.933594 C 209.222656 64.457031 209.519531 65.007812 209.757812 65.589844 C 210 66.167969 210.179688 66.765625 210.304688 67.382812 C 210.425781 68 210.488281 68.621094 210.488281 69.25 C 210.488281 69.878906 210.425781 70.5 210.304688 71.117188 C 210.179688 71.730469 210 72.328125 209.757812 72.910156 C 209.519531 73.488281 209.222656 74.042969 208.871094 74.5625 C 208.523438 75.085938 208.125 75.570312 207.679688 76.011719 C 207.234375 76.457031 206.75 76.855469 206.226562 77.203125 C 205.703125 77.550781 205.152344 77.847656 204.570312 78.085938 C 203.988281 78.328125 203.386719 78.507812 202.769531 78.632812 C 202.152344 78.753906 201.53125 78.816406 200.902344 78.816406 Z M 200.902344 78.816406 " fill-opacity="1" fill-rule="nonzero"/><path fill="#f65dbb" d="M 141.128906 163.339844 C 140.5 163.347656 139.875 163.292969 139.257812 163.175781 C 138.640625 163.058594 138.039062 162.882812 137.453125 162.648438 C 136.871094 162.414062 136.3125 162.125 135.785156 161.78125 C 135.257812 161.4375 134.769531 161.046875 134.320312 160.605469 C 133.871094 160.167969 133.46875 159.6875 133.113281 159.171875 C 132.757812 158.652344 132.457031 158.101562 132.210938 157.523438 C 131.964844 156.949219 131.777344 156.351562 131.648438 155.738281 C 131.519531 155.121094 131.449219 154.5 131.445312 153.871094 C 131.4375 153.242188 131.492188 152.621094 131.609375 152.003906 C 131.726562 151.386719 131.902344 150.785156 132.136719 150.203125 C 132.371094 149.621094 132.660156 149.066406 133.003906 148.542969 C 133.347656 148.015625 133.742188 147.527344 134.183594 147.078125 C 134.621094 146.628906 135.101562 146.230469 135.621094 145.875 C 136.140625 145.519531 136.691406 145.21875 137.269531 144.972656 C 137.851562 144.726562 138.449219 144.539062 139.0625 144.410156 C 139.679688 144.28125 140.304688 144.214844 140.933594 144.207031 L 200.695312 142.992188 C 201.332031 142.96875 201.964844 143.003906 202.59375 143.105469 C 203.226562 143.203125 203.839844 143.363281 204.4375 143.585938 C 205.035156 143.808594 205.601562 144.085938 206.144531 144.421875 C 206.6875 144.757812 207.191406 145.144531 207.65625 145.578125 C 208.121094 146.015625 208.535156 146.492188 208.90625 147.007812 C 209.277344 147.527344 209.589844 148.078125 209.851562 148.660156 C 210.109375 149.238281 210.308594 149.839844 210.449219 150.460938 C 210.585938 151.082031 210.664062 151.710938 210.675781 152.347656 C 210.691406 152.980469 210.640625 153.613281 210.527344 154.238281 C 210.417969 154.867188 210.242188 155.472656 210.007812 156.066406 C 209.773438 156.65625 209.484375 157.21875 209.136719 157.753906 C 208.789062 158.289062 208.394531 158.78125 207.949219 159.238281 C 207.503906 159.691406 207.015625 160.097656 206.488281 160.457031 C 205.964844 160.816406 205.40625 161.117188 204.816406 161.363281 C 204.230469 161.613281 203.625 161.800781 203 161.925781 C 202.375 162.050781 201.742188 162.117188 201.105469 162.117188 L 141.3125 163.339844 Z M 141.128906 163.339844 " fill-opacity="1" fill-rule="nonzero"/><path fill="#f65dbb" d="M 200.902344 227.355469 L 132.472656 227.355469 C 131.84375 227.355469 131.21875 227.292969 130.601562 227.171875 C 129.984375 227.046875 129.382812 226.867188 128.800781 226.625 C 128.222656 226.386719 127.667969 226.089844 127.144531 225.742188 C 126.621094 225.394531 126.136719 224.996094 125.691406 224.550781 C 125.246094 224.109375 124.847656 223.625 124.5 223.101562 C 124.148438 222.582031 123.855469 222.03125 123.613281 221.449219 C 123.371094 220.867188 123.191406 220.269531 123.066406 219.65625 C 122.945312 219.039062 122.882812 218.417969 122.882812 217.789062 C 122.882812 217.160156 122.945312 216.539062 123.066406 215.921875 C 123.191406 215.304688 123.371094 214.707031 123.613281 214.128906 C 123.855469 213.546875 124.148438 212.996094 124.5 212.472656 C 124.847656 211.953125 125.246094 211.46875 125.691406 211.023438 C 126.136719 210.582031 126.621094 210.183594 127.144531 209.835938 C 127.667969 209.484375 128.222656 209.191406 128.800781 208.949219 C 129.382812 208.710938 129.984375 208.53125 130.601562 208.40625 C 131.21875 208.285156 131.84375 208.222656 132.472656 208.222656 L 200.902344 208.222656 C 201.53125 208.222656 202.152344 208.285156 202.769531 208.40625 C 203.386719 208.53125 203.988281 208.710938 204.570312 208.949219 C 205.152344 209.191406 205.703125 209.484375 206.226562 209.835938 C 206.75 210.183594 207.234375 210.582031 207.679688 211.023438 C 208.125 211.46875 208.523438 211.953125 208.871094 212.472656 C 209.222656 212.996094 209.519531 213.546875 209.757812 214.128906 C 210 214.707031 210.179688 215.304688 210.304688 215.921875 C 210.425781 216.539062 210.488281 217.160156 210.488281 217.789062 C 210.488281 218.417969 210.425781 219.039062 210.304688 219.65625 C 210.179688 220.269531 210 220.867188 209.757812 221.449219 C 209.519531 222.03125 209.222656 222.582031 208.871094 223.101562 C 208.523438 223.625 208.125 224.109375 207.679688 224.550781 C 207.234375 224.996094 206.75 225.394531 206.226562 225.742188 C 205.703125 226.089844 205.152344 226.386719 204.570312 226.625 C 203.988281 226.867188 203.386719 227.046875 202.769531 227.171875 C 202.152344 227.292969 201.53125 227.355469 200.902344 227.355469 Z M 200.902344 227.355469 " fill-opacity="1" fill-rule="nonzero"/><path fill="#94acff" d="M 240.8125 196.046875 L 161.242188 196.046875 C 160.613281 196.046875 159.988281 195.988281 159.371094 195.863281 C 158.753906 195.742188 158.15625 195.5625 157.574219 195.320312 C 156.992188 195.078125 156.441406 194.785156 155.917969 194.4375 C 155.394531 194.085938 154.910156 193.691406 154.464844 193.246094 C 154.019531 192.800781 153.621094 192.320312 153.269531 191.796875 C 152.921875 191.273438 152.625 190.722656 152.386719 190.144531 C 152.144531 189.5625 151.960938 188.964844 151.839844 188.347656 C 151.714844 187.734375 151.65625 187.109375 151.65625 186.484375 C 151.65625 185.855469 151.714844 185.234375 151.839844 184.617188 C 151.960938 184 152.144531 183.402344 152.386719 182.820312 C 152.625 182.242188 152.921875 181.691406 153.269531 181.167969 C 153.621094 180.644531 154.019531 180.164062 154.464844 179.71875 C 154.910156 179.273438 155.394531 178.878906 155.917969 178.527344 C 156.441406 178.179688 156.992188 177.886719 157.574219 177.644531 C 158.15625 177.40625 158.753906 177.222656 159.371094 177.101562 C 159.988281 176.976562 160.613281 176.917969 161.242188 176.917969 L 240.8125 176.917969 C 241.441406 176.917969 242.066406 176.976562 242.683594 177.101562 C 243.300781 177.222656 243.902344 177.40625 244.484375 177.644531 C 245.0625 177.886719 245.617188 178.179688 246.140625 178.527344 C 246.664062 178.878906 247.148438 179.273438 247.59375 179.71875 C 248.039062 180.164062 248.4375 180.644531 248.785156 181.167969 C 249.136719 181.691406 249.429688 182.242188 249.671875 182.820312 C 249.914062 183.402344 250.09375 184 250.21875 184.617188 C 250.339844 185.234375 250.402344 185.855469 250.402344 186.484375 C 250.402344 187.109375 250.339844 187.734375 250.21875 188.347656 C 250.09375 188.964844 249.914062 189.5625 249.671875 190.144531 C 249.429688 190.722656 249.136719 191.273438 248.785156 191.796875 C 248.4375 192.320312 248.039062 192.800781 247.59375 193.246094 C 247.148438 193.691406 246.664062 194.085938 246.140625 194.4375 C 245.617188 194.785156 245.0625 195.078125 244.484375 195.320312 C 243.902344 195.5625 243.300781 195.742188 242.683594 195.863281 C 242.066406 195.988281 241.441406 196.046875 240.8125 196.046875 Z M 240.8125 196.046875 " fill-opacity="1" fill-rule="nonzero"/><path fill="#94acff" d="M 199.570312 318.367188 L 133.730469 318.367188 C 133.101562 318.367188 132.476562 318.308594 131.859375 318.183594 C 131.242188 318.0625 130.640625 317.878906 130.058594 317.640625 C 129.480469 317.398438 128.925781 317.105469 128.402344 316.757812 C 127.878906 316.40625 127.394531 316.011719 126.949219 315.566406 C 126.503906 315.121094 126.109375 314.640625 125.757812 314.117188 C 125.40625 313.59375 125.113281 313.042969 124.871094 312.464844 C 124.628906 311.882812 124.449219 311.285156 124.324219 310.667969 C 124.203125 310.054688 124.140625 309.429688 124.140625 308.804688 C 124.140625 308.175781 124.203125 307.550781 124.324219 306.9375 C 124.449219 306.320312 124.628906 305.722656 124.871094 305.140625 C 125.113281 304.5625 125.40625 304.011719 125.757812 303.488281 C 126.109375 302.964844 126.503906 302.484375 126.949219 302.039062 C 127.394531 301.59375 127.878906 301.199219 128.402344 300.847656 C 128.925781 300.5 129.480469 300.207031 130.058594 299.964844 C 130.640625 299.726562 131.242188 299.542969 131.859375 299.421875 C 132.476562 299.296875 133.101562 299.238281 133.730469 299.238281 L 199.609375 299.238281 C 200.238281 299.238281 200.863281 299.296875 201.480469 299.421875 C 202.097656 299.542969 202.695312 299.726562 203.277344 299.964844 C 203.859375 300.207031 204.414062 300.5 204.9375 300.847656 C 205.460938 301.199219 205.945312 301.59375 206.390625 302.039062 C 206.835938 302.484375 207.230469 302.964844 207.582031 303.488281 C 207.929688 304.011719 208.226562 304.5625 208.46875 305.140625 C 208.707031 305.722656 208.890625 306.320312 209.011719 306.9375 C 209.136719 307.550781 209.199219 308.175781 209.199219 308.804688 C 209.199219 309.429688 209.136719 310.054688 209.011719 310.667969 C 208.890625 311.285156 208.707031 311.882812 208.46875 312.464844 C 208.226562 313.042969 207.929688 313.59375 207.582031 314.117188 C 207.230469 314.640625 206.835938 315.121094 206.390625 315.566406 C 205.945312 316.011719 205.460938 316.40625 204.9375 316.757812 C 204.414062 317.105469 203.859375 317.398438 203.277344 317.640625 C 202.695312 317.878906 202.097656 318.0625 201.480469 318.183594 C 200.863281 318.308594 200.238281 318.367188 199.609375 318.367188 Z M 199.570312 318.367188 " fill-opacity="1" fill-rule="nonzero"/><path fill="#f65dbb" d="M 239.359375 352.339844 L 159.789062 352.339844 C 159.15625 352.339844 158.535156 352.28125 157.917969 352.15625 C 157.300781 352.035156 156.699219 351.851562 156.117188 351.613281 C 155.535156 351.371094 154.984375 351.078125 154.460938 350.730469 C 153.9375 350.378906 153.453125 349.984375 153.007812 349.539062 C 152.5625 349.09375 152.164062 348.613281 151.816406 348.089844 C 151.464844 347.566406 151.171875 347.015625 150.929688 346.4375 C 150.6875 345.855469 150.507812 345.257812 150.382812 344.640625 C 150.261719 344.023438 150.199219 343.402344 150.199219 342.773438 C 150.199219 342.148438 150.261719 341.523438 150.382812 340.910156 C 150.507812 340.292969 150.6875 339.695312 150.929688 339.113281 C 151.171875 338.535156 151.464844 337.984375 151.816406 337.460938 C 152.164062 336.9375 152.5625 336.457031 153.007812 336.011719 C 153.453125 335.566406 153.9375 335.171875 154.460938 334.820312 C 154.984375 334.472656 155.535156 334.179688 156.117188 333.9375 C 156.699219 333.695312 157.300781 333.515625 157.917969 333.394531 C 158.535156 333.269531 159.15625 333.210938 159.789062 333.210938 L 239.359375 333.210938 C 239.988281 333.210938 240.609375 333.269531 241.230469 333.394531 C 241.847656 333.515625 242.445312 333.695312 243.027344 333.9375 C 243.609375 334.179688 244.160156 334.472656 244.683594 334.820312 C 245.207031 335.171875 245.691406 335.566406 246.136719 336.011719 C 246.582031 336.457031 246.980469 336.9375 247.332031 337.460938 C 247.679688 337.984375 247.976562 338.535156 248.214844 339.113281 C 248.457031 339.695312 248.640625 340.292969 248.761719 340.910156 C 248.882812 341.523438 248.945312 342.148438 248.945312 342.773438 C 248.945312 343.402344 248.882812 344.023438 248.761719 344.640625 C 248.640625 345.257812 248.457031 345.855469 248.214844 346.4375 C 247.976562 347.015625 247.679688 347.566406 247.332031 348.089844 C 246.980469 348.613281 246.582031 349.09375 246.136719 349.539062 C 245.691406 349.984375 245.207031 350.378906 244.683594 350.730469 C 244.160156 351.078125 243.609375 351.371094 243.027344 351.613281 C 242.445312 351.851562 241.847656 352.035156 241.230469 352.15625 C 240.609375 352.28125 239.988281 352.339844 239.359375 352.339844 Z M 239.359375 352.339844 " fill-opacity="1" fill-rule="nonzero"/><path fill="#f65dbb" d="M 143.144531 122.894531 C 143.144531 122.894531 148.515625 116.332031 153.011719 113.351562 C 153.300781 113.167969 153.617188 113.066406 153.960938 113.050781 C 154.304688 113.03125 154.628906 113.105469 154.9375 113.261719 L 169.25 120.71875 C 169.460938 120.828125 169.636719 120.976562 169.777344 121.167969 C 169.917969 121.355469 170.007812 121.566406 170.046875 121.800781 C 170.089844 122.03125 170.074219 122.261719 170.007812 122.488281 C 169.9375 122.710938 169.824219 122.910156 169.664062 123.082031 C 165.90625 127.019531 162.589844 131.292969 159.714844 135.90625 Z M 143.144531 122.894531 " fill-opacity="1" fill-rule="nonzero"/><path fill="#94acff" d="M 219.089844 241.234375 C 219.089844 241.234375 213.144531 247.25 209.484375 248.863281 C 206.523438 250.175781 202.808594 251.851562 200.875 252.730469 C 200.75 252.792969 200.652344 252.886719 200.574219 253.003906 C 200.496094 253.117188 200.453125 253.246094 200.441406 253.386719 C 200.429688 253.527344 200.449219 253.660156 200.507812 253.789062 C 200.566406 253.917969 200.648438 254.023438 200.761719 254.105469 L 215.851562 264.148438 C 216.191406 264.378906 216.566406 264.515625 216.976562 264.5625 C 217.386719 264.609375 217.785156 264.558594 218.167969 264.410156 C 221.679688 263.082031 231.480469 258.882812 233.386719 252.984375 Z M 219.089844 241.234375 " fill-opacity="1" fill-rule="nonzero"/><path fill="#94acff" d="M 155.71875 266.535156 L 154.5 267.027344 L 165.667969 283.058594 C 165.667969 283.058594 172.320312 279.925781 174.546875 278.808594 L 175.953125 278.121094 C 176.390625 277.898438 176.617188 277.546875 176.628906 277.054688 C 176.636719 276.566406 176.429688 276.203125 176.003906 275.960938 L 159.070312 266.414062 C 158.25 265.945312 157.394531 265.730469 155.71875 266.535156 Z M 155.71875 266.535156 " fill-opacity="1" fill-rule="nonzero"/></svg>