<svg xmlns="http://www.w3.org/2000/svg" xmlns:xlink="http://www.w3.org/1999/xlink" width="500" zoomAndPan="magnify" viewBox="0 0 375 374.999991" height="500" preserveAspectRatio="xMidYMid meet" version="1.0"><path fill="#000000" d="M 160.972656 367.367188 C 152.457031 362.183594 148.234375 352.132812 148.410156 337.492188 C 148.644531 318.300781 156.617188 298.640625 169.683594 285.046875 C 174.855469 279.664062 177.296875 276.078125 177.296875 273.867188 C 177.296875 265.183594 189.222656 255.890625 200.476562 255.800781 C 208.042969 255.742188 213.09375 258.34375 217.285156 264.453125 C 220.78125 269.550781 221.050781 269.496094 237.703125 260.445312 C 251.707031 252.832031 256.761719 252.980469 260.128906 261.101562 C 262.199219 266.09375 261.148438 271.703125 255.523438 285.636719 C 253.101562 291.640625 251.332031 296.765625 251.59375 297.027344 C 251.859375 297.289062 255.589844 293.992188 259.886719 289.699219 C 268.824219 280.769531 278.121094 267.5 279.191406 262.140625 C 280.597656 255.128906 288.871094 254.320312 291.394531 260.945312 C 295.011719 270.453125 287.371094 284.53125 268.175781 303.734375 L 253.429688 318.480469 L 256.363281 323.78125 C 261.730469 333.488281 266.65625 339.964844 271.421875 343.597656 C 275.417969 346.640625 277.382812 347.195312 284.214844 347.195312 C 291.304688 347.195312 292.894531 346.707031 297.261719 343.191406 C 305.335938 336.695312 309.707031 329.503906 310.332031 321.691406 C 310.785156 316.03125 310.40625 314.355469 308.125 311.945312 C 306.613281 310.34375 304.378906 309.042969 303.160156 309.054688 C 298.675781 309.097656 290.578125 314.945312 287.910156 320.066406 C 284.914062 325.816406 281.253906 327.300781 278.695312 323.804688 C 274.890625 318.609375 278.078125 306.71875 284.957031 300.4375 C 296.230469 290.148438 309.265625 289.378906 318.863281 298.445312 C 327.148438 306.269531 329.960938 317.117188 326.808594 329.070312 C 319.726562 355.933594 292.078125 371.929688 269.625 362.15625 C 261.273438 358.519531 250.753906 347.75 243.871094 335.789062 L 238.796875 326.972656 L 237.054688 331.234375 C 236.097656 333.578125 234.410156 339.152344 233.304688 343.621094 C 231.460938 351.082031 231.472656 351.941406 233.429688 354.101562 C 236.355469 357.332031 236.101562 360.253906 232.683594 362.644531 C 224.214844 368.570312 214.84375 361.1875 214.84375 348.597656 C 214.84375 342.238281 220.332031 325.621094 229.40625 304.507812 C 233.6875 294.546875 237.96875 284.566406 238.921875 282.332031 L 240.660156 278.265625 L 231.960938 281.914062 C 223.855469 285.3125 223.191406 285.898438 222.25 290.507812 C 217.144531 315.488281 213.402344 326.308594 204.476562 341.890625 C 191.304688 364.894531 173.765625 375.164062 160.972656 367.367188 Z M 180.472656 346.222656 C 190.300781 336.042969 201.546875 312.488281 203.824219 297.292969 L 204.691406 291.53125 L 185.730469 288.546875 L 182.207031 292.644531 C 171.714844 304.863281 163.285156 328.957031 164.96875 341.921875 C 166.699219 355.269531 170.675781 356.371094 180.472656 346.222656 Z M 201.546875 273.328125 C 201.117188 272.898438 200 272.851562 199.066406 273.226562 C 198.035156 273.636719 198.339844 273.945312 199.847656 274.007812 C 201.214844 274.0625 201.976562 273.757812 201.546875 273.328125 Z M 75.386719 365.453125 C 57.855469 359.707031 45.273438 345.949219 37.996094 324.558594 C 36.277344 319.5 35.574219 313.703125 35.558594 304.507812 C 35.542969 293.191406 35.972656 290.652344 38.980469 284.230469 C 48.4375 264.03125 66.804688 253.476562 92.585938 253.429688 C 111.1875 253.398438 123.449219 259.164062 132.089844 272.003906 C 140.132812 283.957031 143.382812 306.742188 139.621094 324.816406 C 136.101562 341.730469 124.914062 356.347656 110.410156 362.980469 C 101.503906 367.054688 84.042969 368.285156 75.386719 365.453125 Z M 70.214844 336.933594 C 71.554688 335.59375 72.328125 329.917969 72.992188 316.511719 C 74.175781 292.652344 72.941406 287.042969 66.519531 287.042969 C 64.867188 287.042969 63.148438 287.640625 62.695312 288.371094 C 61.519531 290.269531 60.414062 325.464844 61.371094 330.554688 C 62.15625 334.738281 65.046875 338.785156 67.25 338.785156 C 67.859375 338.785156 69.195312 337.953125 70.214844 336.933594 Z M 106.738281 332.1875 C 113.980469 330.214844 117.742188 326.390625 117.742188 321 C 117.742188 316.285156 117.164062 315.601562 102.382812 302.800781 C 96.273438 297.507812 94.4375 295.101562 94.4375 292.386719 C 94.4375 286.21875 99.199219 283.800781 103.570312 287.753906 C 108.214844 291.953125 111.257812 283.699219 107.042969 278.320312 C 106.351562 277.433594 103.605469 276.054688 100.945312 275.257812 C 93.804688 273.121094 87.15625 276.566406 83.804688 284.128906 C 79.140625 294.667969 83.644531 305.054688 97.183594 314.957031 L 104.117188 320.03125 L 98.753906 320.421875 C 95.800781 320.636719 91.4375 320.003906 89.058594 319.011719 C 83.605469 316.746094 81.492188 317.4375 81.492188 321.492188 C 81.492188 325.566406 86.738281 330.4375 92.886719 332.074219 C 99.402344 333.804688 100.757812 333.816406 106.738281 332.1875 Z M 126.734375 244.816406 C 125.714844 242.140625 125.757812 234 126.886719 215.253906 C 127.746094 201.023438 128.371094 175.121094 128.273438 157.6875 C 128.175781 140.257812 128.585938 125.242188 129.183594 124.316406 C 129.785156 123.390625 138.085938 120.371094 147.636719 117.605469 C 157.1875 114.839844 167.734375 111.730469 171.074219 110.703125 C 176.363281 109.074219 177.492188 109.074219 179.8125 110.695312 C 182.085938 112.285156 182.476562 113.9375 182.476562 121.898438 C 182.476562 132.292969 180.699219 136.183594 175.335938 137.527344 C 173.507812 137.984375 168.832031 139.546875 164.945312 141 C 157.984375 143.605469 157.878906 143.722656 157.878906 148.886719 L 157.878906 154.128906 L 162.085938 153.175781 C 171.796875 150.972656 171.472656 150.621094 171.472656 163.4375 L 171.472656 170.660156 C 171.472656 173.738281 170.5 175.21875 165 176.382812 L 158.527344 177.753906 L 158.167969 196.179688 L 157.808594 214.601562 L 168.601562 214.601562 C 175.195312 214.601562 180.25 215.230469 181.597656 216.21875 C 182.988281 217.242188 184.546875 221.796875 185.824219 228.585938 C 189.167969 246.320312 189.476562 246.15625 149.804688 247.675781 L 132.953125 248.324219 C 127.859375 248.644531 127.53125 246.914062 126.734375 244.816406 Z M 43.195312 245.261719 C 41.652344 244.394531 41.355469 235.804688 41.355469 192.105469 C 41.355469 132.066406 40.371094 136.390625 54.492188 134.351562 C 66.960938 132.550781 73.152344 132.808594 75.152344 135.214844 C 76.398438 136.714844 76.792969 140.632812 76.527344 148.964844 C 76.15625 160.582031 76.164062 160.617188 79.148438 159.816406 C 80.792969 159.378906 83.136719 159.011719 84.351562 159 C 86.246094 158.984375 86.625 157.328125 86.941406 147.675781 C 87.296875 136.917969 87.480469 136.292969 90.710938 134.75 C 92.578125 133.859375 98.621094 132.425781 104.136719 131.570312 C 113.558594 130.105469 114.28125 130.164062 116.070312 132.53125 C 117.5625 134.507812 117.765625 137.007812 117.015625 144.105469 C 116.484375 149.085938 115.703125 173.527344 115.277344 198.421875 L 114.570312 239.855469 C 114.921875 243.699219 114.1875 243.832031 110.933594 245.390625 C 107.234375 247.15625 91.324219 246.433594 87.9375 244.339844 C 86.699219 243.574219 86.371094 236.539062 86.566406 214.742188 L 86.824219 186.148438 L 76.3125 186.148438 L 76.3125 213.800781 C 76.3125 237.90625 76.039062 241.679688 74.175781 243.230469 C 71.734375 245.257812 46.175781 246.9375 43.195312 245.261719 Z M 195.015625 231.855469 C 193.84375 211.84375 192.722656 160.871094 193.101562 134.621094 C 193.429688 111.875 193.773438 108.109375 195.636719 106.75 C 198.644531 104.554688 217.089844 100.363281 219.566406 101.3125 C 221.214844 101.945312 221.433594 103.265625 220.695312 108.167969 C 220.195312 111.507812 220.523438 136.242188 221.429688 163.128906 L 223.074219 212.019531 L 235.058594 212.019531 C 241.652344 212.019531 248.539062 212.585938 250.367188 213.28125 C 253.609375 214.511719 253.6875 214.832031 253.6875 226.816406 C 253.6875 237.628906 253.386719 239.25 251.183594 240.429688 C 248.273438 241.984375 218.394531 242.207031 203.785156 241.3125 C 199.152344 241.136719 195.484375 239.773438 195.015625 231.855469 Z M 262.859375 238.097656 C 262.039062 236.566406 261.960938 225.363281 262.636719 206.753906 C 263.242188 190.191406 263.171875 165.875 262.476562 149.953125 C 261.328125 123.679688 261.925781 92.777344 263.671875 88.230469 C 264.589844 85.847656 283.90625 76.605469 296.871094 72.34375 C 321.160156 64.359375 337.097656 71.988281 340.757812 93.355469 C 345 118.09375 329.953125 143.691406 303.707031 156.386719 L 292.269531 161.917969 L 293.089844 176.296875 C 293.539062 184.203125 294.515625 200.414062 295.257812 212.316406 C 295.996094 224.21875 296.25 235.070312 295.816406 236.429688 C 294.761719 239.757812 291.535156 240.4375 276.714844 240.457031 C 265.8125 240.472656 263.964844 240.160156 262.859375 238.097656 Z M 303.074219 109.457031 C 305.167969 105.578125 303.191406 102.066406 298.914062 102.066406 C 295.125 102.066406 295.117188 102.082031 295.117188 110.054688 L 295.117188 118.039062 L 298.472656 114.902344 C 300.320312 113.179688 302.390625 110.726562 303.074219 109.457031 Z M 52.117188 121.476562 C 37.246094 112.957031 30.230469 94.851562 38.152344 85.445312 C 44.253906 78.199219 52.707031 78.847656 67.296875 87.679688 L 75.664062 92.746094 L 84.078125 76.257812 C 93.59375 57.617188 95.0625 55.5 98.480469 55.5 C 101.871094 55.5 101.667969 58.136719 96.371094 83.253906 C 92.28125 102.648438 91.246094 112.0625 92.183594 121.339844 C 92.570312 125.167969 90.261719 126.167969 87.46875 123.375 C 85.980469 121.890625 85.375 118.910156 85.375 113.097656 C 85.375 105.222656 85.230469 104.855469 81.617188 103.597656 C 77.863281 102.289062 77.851562 102.300781 73.617188 112.203125 C 71.285156 117.65625 68.828125 122.84375 68.152344 123.734375 C 66.078125 126.480469 59.148438 125.507812 52.117188 121.476562 Z M 69.03125 109.632812 L 72.757812 99.09375 L 69.679688 96.699219 C 64.671875 92.804688 51.53125 86.542969 48.359375 86.542969 C 38.421875 86.542969 39.429688 102.828125 49.976562 112.585938 C 54.191406 116.488281 60.523438 120.050781 63.363281 120.121094 C 64.644531 120.152344 66.582031 116.566406 69.03125 109.632812 Z M 89.355469 87.078125 C 90.71875 80.847656 91.554688 75.472656 91.21875 75.132812 C 90.878906 74.796875 88.34375 79.40625 85.589844 85.382812 C 80.613281 96.164062 80.59375 96.257812 83.296875 97.757812 C 84.792969 98.585938 86.210938 99.074219 86.445312 98.839844 C 86.683594 98.601562 87.992188 93.3125 89.355469 87.078125 Z M 99.351562 121.792969 C 96.496094 118.492188 95.789062 114.265625 97.222656 109.070312 C 98.828125 103.265625 101.359375 103.980469 102.207031 110.472656 C 103.015625 116.703125 105.242188 117.582031 107.347656 112.503906 C 108.546875 109.609375 108.71875 103.21875 108.023438 87.429688 C 107.152344 67.703125 107.269531 65.828125 109.753906 60.222656 C 111.871094 55.4375 113.0625 54.203125 115.570312 54.203125 C 119.589844 54.203125 121.765625 56.84375 121.90625 61.894531 C 122.0625 67.382812 120.601562 68.339844 117.773438 64.59375 L 115.390625 61.4375 L 114.414062 67.847656 C 113.875 71.371094 114.066406 80.65625 114.835938 88.484375 C 116.75 107.863281 114.898438 117.488281 108.382812 122.050781 C 104.636719 124.671875 101.773438 124.589844 99.351562 121.792969 Z M 124.660156 111.707031 C 124.238281 110.605469 124.253906 107.257812 124.691406 104.269531 C 125.132812 101.277344 126.6875 90.101562 128.144531 79.429688 C 131.324219 56.125 132.746094 50.324219 135.269531 50.324219 C 137.402344 50.324219 137.726562 59.917969 136.003906 71.992188 C 135.472656 75.726562 135.203125 78.78125 135.40625 78.78125 C 136.847656 78.78125 138.992188 71.355469 141.125 58.980469 C 142.046875 53.621094 142.859375 48.851562 143.292969 46.253906 C 143.664062 42.933594 148.773438 43.332031 148.765625 46.53125 C 148.75 47.726562 148.585938 49.449219 148.324219 51.941406 C 147.855469 56.386719 146.535156 64.101562 145.390625 69.082031 C 144.242188 74.0625 143.40625 79.300781 143.527344 80.722656 C 145.691406 105.765625 144.949219 112.039062 140.046875 110.160156 C 138.527344 109.578125 138.332031 107.714844 139.039062 100.554688 C 140.003906 90.75 139.230469 86.542969 136.453125 86.542969 C 134.511719 86.542969 134.308594 87.214844 131.890625 101.417969 C 130.371094 110.335938 128.921875 113.707031 126.605469 113.707031 C 125.957031 113.707031 125.082031 112.808594 124.660156 111.707031 Z M 150.535156 105.1875 C 150.101562 104.0625 150.417969 100.132812 151.234375 96.457031 C 152.054688 92.785156 153.582031 81.335938 154.632812 71.019531 C 157.101562 46.742188 157.644531 43.855469 159.730469 43.855469 C 163.8125 43.855469 163.199219 66.640625 158.367188 94.628906 C 156.515625 105.335938 155.820312 107.242188 153.753906 107.242188 C 152.417969 107.242188 150.96875 106.316406 150.535156 105.1875 Z M 165.269531 103.84375 C 164.410156 102.984375 164.902344 92.246094 167.015625 65.847656 C 168.84375 42.988281 169.199219 41.269531 172.078125 41.269531 C 175.199219 41.269531 176.476562 45.300781 179.886719 65.847656 C 181.359375 74.738281 182.773438 82.597656 183.023438 83.308594 C 183.273438 84.019531 183.550781 76.453125 183.636719 66.492188 C 183.835938 43.96875 184.8125 38.035156 188.324219 38.035156 C 190.539062 38.035156 190.863281 38.835938 190.664062 43.855469 C 190.539062 47.058594 190.246094 60.03125 190.015625 72.683594 C 189.675781 91.378906 189.234375 95.917969 187.664062 96.886719 C 185.160156 98.433594 181.097656 95.828125 178.824219 91.210938 C 177.878906 89.300781 176.390625 83.539062 175.515625 78.410156 L 173.917969 69.082031 L 173.019531 75.40625 C 172.523438 78.882812 172.121094 85.394531 172.121094 89.875 C 172.121094 94.351562 171.550781 99.511719 170.855469 101.335938 C 169.664062 104.46875 167.0625 105.636719 165.269531 103.84375 Z M 199.539062 92.613281 C 195.042969 87.824219 193.609375 77.390625 195.226562 61.136719 C 196.910156 44.160156 199.554688 35.910156 204.703125 31.585938 C 209 27.972656 210.984375 27.582031 213.292969 29.886719 C 215.773438 32.367188 215.117188 34.132812 211.144531 35.628906 C 208.351562 36.683594 206.902344 38.574219 205.238281 43.351562 C 202.792969 50.363281 201.007812 75.574219 202.421875 83.105469 C 204.488281 94.109375 208.085938 85.132812 209.253906 66.058594 C 209.972656 54.320312 209.804688 52.445312 207.929688 51.398438 C 204.78125 49.636719 205.3125 46.558594 209.007812 45.15625 C 216.058594 42.476562 216.507812 43.75 215.832031 64.425781 C 215.191406 83.9375 214.222656 88.457031 209.71875 92.960938 C 206.265625 96.410156 203.007812 96.296875 199.539062 92.613281 Z M 246.039062 72.117188 C 225.933594 54.535156 230.09375 21.453125 260.777344 4.695312 C 267.925781 0.996094 285.566406 0.09375 295.328125 2.925781 C 304.007812 5.449219 312.410156 11.347656 315.363281 16.988281 C 323.402344 32.359375 308.765625 54.441406 281.617188 67.90625 C 270.390625 73.007812 255.613281 78.609375 246.039062 72.117188 Z M 257.578125 60.347656 C 257.585938 59.460938 256.90625 54.246094 256.070312 48.765625 C 254.574219 38.949219 254.597656 38.757812 257.679688 36.175781 C 260.617188 33.902344 263.367188 32.675781 261.167969 29.839844 C 259.617188 27.835938 256.011719 31.386719 255.558594 31.039062 C 254.15625 29.964844 254.8125 28.949219 256.292969 25.050781 C 257.175781 22.734375 258.253906 21.851562 259.578125 22.359375 C 261.984375 23.28125 263.660156 19.667969 261.722656 17.734375 C 259.363281 15.378906 253.859375 17.777344 251.597656 22.152344 C 247.714844 29.652344 251.035156 61.964844 255.691406 61.964844 C 256.722656 61.964844 257.574219 61.238281 257.578125 60.347656 Z M 277.21875 48.714844 C 279.515625 45.492188 280.320312 42.351562 280.679688 35.210938 C 281.113281 26.632812 280.890625 25.644531 277.835938 22.589844 C 276.011719 20.769531 273.660156 19.277344 272.613281 19.277344 C 269.496094 19.277344 265.582031 25.4375 264.140625 32.617188 C 260.921875 48.601562 269.644531 59.335938 277.21875 48.714844 Z M 269.683594 45.78125 C 268.652344 43.085938 269.703125 26.128906 270.984375 24.847656 C 272.777344 23.058594 275.695312 28.605469 275.695312 33.796875 C 275.695312 38.589844 272.738281 47.738281 271.191406 47.738281 C 270.777344 47.738281 270.097656 46.855469 269.683594 45.78125 Z M 289.9375 42.503906 L 289.9375 36.292969 L 293.941406 38.289062 C 297.046875 39.835938 298.644531 39.964844 301.0625 38.863281 C 304.8125 37.15625 305.441406 32.933594 301.773438 34.097656 C 298.921875 35 295.117188 33.765625 295.117188 31.9375 C 295.117188 31.230469 296.574219 28.917969 298.355469 26.804688 C 302.074219 22.386719 302.683594 15.328125 299.570312 12.746094 C 295.148438 9.082031 276.992188 10.148438 276.992188 14.074219 C 276.992188 14.800781 278.816406 15.398438 281.050781 15.398438 L 285.109375 15.398438 L 284.492188 31.445312 C 283.847656 48.167969 284.773438 52.996094 288.101562 50.238281 C 289.222656 49.308594 289.9375 46.289062 289.9375 42.503906 Z M 289.550781 21.625 C 289.144531 18.582031 289.035156 15.867188 289.3125 15.589844 C 289.589844 15.3125 291.300781 15.460938 293.113281 15.914062 C 297.300781 16.964844 297.398438 20.488281 293.351562 24.285156 L 290.296875 27.15625 Z M 108.246094 49.460938 C 107.773438 48.988281 107.382812 48.078125 107.382812 47.441406 C 107.382812 44.269531 141.1875 32.542969 188.28125 19.371094 C 206.710938 14.21875 211.898438 13.195312 213.160156 14.453125 C 214.035156 15.328125 214.335938 16.710938 213.828125 17.523438 C 213.320312 18.339844 203 21.722656 190.894531 25.042969 C 163.558594 32.546875 139.101562 39.984375 122.523438 45.839844 C 108.167969 50.910156 109.386719 50.601562 108.246094 49.460938 Z M 108.246094 49.460938 " fill-opacity="1" fill-rule="nonzero"/></svg>