<svg xmlns="http://www.w3.org/2000/svg" xmlns:xlink="http://www.w3.org/1999/xlink" width="500" zoomAndPan="magnify" viewBox="0 0 375 374.999991" height="500" preserveAspectRatio="xMidYMid meet" version="1.0"><defs><clipPath id="a7ac709f12"><path d="M 98 208 L 277 208 L 277 349.535156 L 98 349.535156 Z M 98 208 " clip-rule="nonzero"/></clipPath></defs><path fill="#ffa500" d="M 113.078125 150.046875 C 107.148438 142.894531 105.007812 137.304688 108.324219 129.28125 C 112 120.421875 121.777344 116.058594 130.152344 119.539062 C 145.339844 125.820312 153.878906 148.160156 162.414062 170.484375 C 140.589844 180.230469 118.765625 189.992188 103.574219 183.695312 C 95.199219 180.214844 91.363281 170.210938 95.035156 161.367188 C 98.371094 153.347656 103.832031 150.914062 113.078125 150.046875 Z M 113.078125 150.046875 " fill-opacity="1" fill-rule="evenodd"/><path fill="#b3282e" d="M 102.074219 71.824219 C 100.144531 65.542969 100.257812 61.308594 104.589844 56.976562 C 109.390625 52.175781 116.960938 51.964844 121.503906 56.507812 C 129.734375 64.738281 129.265625 81.636719 128.796875 98.546875 C 111.886719 99.015625 94.972656 99.484375 86.757812 91.253906 C 82.214844 86.710938 82.425781 79.140625 87.226562 74.339844 C 91.574219 70.007812 95.792969 69.894531 102.074219 71.824219 Z M 102.074219 71.824219 " fill-opacity="1" fill-rule="evenodd"/><path fill="#6e9277" d="M 59.761719 120.472656 C 55.558594 115.414062 54.058594 111.449219 56.410156 105.78125 C 59.003906 99.515625 65.929688 96.421875 71.859375 98.886719 C 82.601562 103.332031 88.640625 119.132812 94.683594 134.9375 C 79.234375 141.832031 63.789062 148.742188 53.042969 144.277344 C 47.117188 141.8125 44.410156 134.742188 47.003906 128.476562 C 49.355469 122.808594 53.222656 121.082031 59.761719 120.472656 Z M 59.761719 120.472656 " fill-opacity="1" fill-rule="evenodd"/><path fill="#6e9277" d="M 156.921875 40.964844 C 157.535156 34.425781 159.257812 30.558594 164.929688 28.207031 C 171.195312 25.613281 178.265625 28.320312 180.730469 34.246094 C 185.175781 44.992188 178.28125 60.4375 171.386719 75.886719 C 155.585938 69.84375 139.785156 63.804688 135.339844 53.0625 C 132.875 47.132812 135.964844 40.207031 142.234375 37.613281 C 147.917969 35.261719 151.863281 36.777344 156.921875 40.964844 Z M 156.921875 40.964844 " fill-opacity="1" fill-rule="evenodd"/><path fill="#ed1c24" d="M 50.402344 187.851562 C 46.199219 192.90625 44.699219 196.871094 47.050781 202.539062 C 49.644531 208.804688 56.570312 211.898438 62.5 209.433594 C 73.242188 204.988281 79.285156 189.1875 85.324219 173.386719 C 69.875 166.492188 54.429688 159.582031 43.6875 164.042969 C 37.757812 166.492188 35.050781 173.5625 37.644531 179.828125 C 39.996094 185.5 43.863281 187.238281 50.402344 187.851562 Z M 50.402344 187.851562 " fill-opacity="1" fill-rule="evenodd"/><path fill="#ffa500" d="M 81.152344 246.917969 C 76.273438 252.796875 74.515625 257.386719 77.253906 263.992188 C 80.265625 271.273438 88.320312 274.863281 95.214844 272.011719 C 107.699219 266.84375 114.738281 248.464844 121.757812 230.101562 C 103.800781 222.078125 85.839844 214.058594 73.355469 219.226562 C 66.460938 222.078125 63.320312 230.308594 66.332031 237.589844 C 69.054688 244.195312 73.535156 246.207031 81.152344 246.917969 Z M 81.152344 246.917969 " fill-opacity="1" fill-rule="evenodd"/><path fill="#ed1c24" d="M 187.511719 105.234375 C 191.84375 97.019531 196.195312 92.910156 204.875 92.910156 C 214.460938 92.910156 222.238281 100.273438 222.238281 109.339844 C 222.238281 125.769531 204.875 142.21875 187.511719 158.648438 C 170.148438 142.21875 152.785156 125.769531 152.785156 109.339844 C 152.785156 100.273438 160.5625 92.910156 170.148438 92.910156 C 178.828125 92.910156 183.164062 97.019531 187.511719 105.234375 Z M 187.511719 105.234375 " fill-opacity="1" fill-rule="evenodd"/><path fill="#b3282e" d="M 261.929688 150.046875 C 267.855469 142.894531 270 137.304688 266.679688 129.28125 C 263.007812 120.421875 253.230469 116.058594 244.855469 119.539062 C 229.664062 125.820312 221.128906 148.160156 212.589844 170.484375 C 234.417969 180.230469 256.242188 189.992188 271.433594 183.695312 C 279.808594 180.214844 283.640625 170.210938 279.96875 161.367188 C 276.652344 153.347656 271.191406 150.914062 261.929688 150.046875 Z M 261.929688 150.046875 " fill-opacity="1" fill-rule="evenodd"/><path fill="#6e9277" d="M 272.929688 71.824219 C 274.878906 65.542969 274.75 61.308594 270.417969 56.976562 C 265.617188 52.175781 258.046875 51.964844 253.503906 56.507812 C 245.289062 64.738281 245.742188 81.636719 246.207031 98.546875 C 263.121094 99.015625 280.035156 99.484375 288.25 91.253906 C 292.792969 86.710938 292.582031 79.140625 287.78125 74.339844 C 283.449219 70.007812 279.210938 69.894531 272.929688 71.824219 Z M 272.929688 71.824219 " fill-opacity="1" fill-rule="evenodd"/><path fill="#ed1c24" d="M 315.246094 120.472656 C 319.449219 115.414062 320.949219 111.449219 318.597656 105.78125 C 316.003906 99.515625 309.078125 96.421875 303.148438 98.886719 C 292.40625 103.332031 286.363281 119.132812 280.324219 134.9375 C 295.769531 141.832031 311.21875 148.742188 321.960938 144.277344 C 327.890625 141.8125 330.597656 134.742188 328.003906 128.476562 C 325.652344 122.808594 321.800781 121.082031 315.246094 120.472656 Z M 315.246094 120.472656 " fill-opacity="1" fill-rule="evenodd"/><path fill="#ffa500" d="M 218.082031 40.964844 C 217.472656 34.425781 215.75 30.558594 210.078125 28.207031 C 203.8125 25.613281 196.742188 28.320312 194.277344 34.246094 C 189.832031 44.992188 196.726562 60.4375 203.621094 75.886719 C 219.421875 69.84375 235.222656 63.804688 239.667969 53.0625 C 242.132812 47.132812 239.039062 40.207031 232.773438 37.613281 C 227.105469 35.261719 223.140625 36.777344 218.082031 40.964844 Z M 218.082031 40.964844 " fill-opacity="1" fill-rule="evenodd"/><path fill="#ffa500" d="M 324.605469 187.851562 C 328.808594 192.90625 330.304688 196.871094 327.953125 202.539062 C 325.359375 208.804688 318.433594 211.898438 312.507812 209.433594 C 301.761719 204.988281 295.722656 189.1875 289.667969 173.386719 C 305.113281 166.492188 320.5625 159.582031 331.304688 164.042969 C 337.234375 166.507812 339.9375 173.578125 337.34375 179.84375 C 335.007812 185.5 331.160156 187.238281 324.605469 187.851562 Z M 324.605469 187.851562 " fill-opacity="1" fill-rule="evenodd"/><path fill="#6e9277" d="M 293.855469 246.917969 C 298.734375 252.796875 300.492188 257.386719 297.753906 263.992188 C 294.742188 271.273438 286.6875 274.863281 279.792969 272.011719 C 267.292969 266.84375 260.269531 248.464844 253.246094 230.101562 C 271.207031 222.078125 289.167969 214.058594 301.652344 219.226562 C 308.542969 222.078125 311.6875 230.308594 308.671875 237.589844 C 305.96875 244.195312 301.472656 246.207031 293.855469 246.917969 Z M 293.855469 246.917969 " fill-opacity="1" fill-rule="evenodd"/><g clip-path="url(#a7ac709f12)"><path fill="#374f59" d="M 98.984375 349.378906 L 276.023438 349.378906 C 257.886719 344.207031 229.214844 340.679688 196.453125 340.132812 C 190.378906 278.84375 238.703125 245.675781 253.261719 208.128906 C 209.191406 257.097656 165.8125 257.097656 121.742188 208.128906 C 136.304688 245.675781 184.304688 279.066406 178.507812 340.132812 C 145.777344 340.679688 117.121094 344.207031 98.984375 349.378906 Z M 98.984375 349.378906 " fill-opacity="1" fill-rule="evenodd"/></g><path fill="#374f59" d="M 187.511719 236.609375 C 201.542969 236.609375 212.976562 225.171875 212.976562 211.140625 C 212.976562 197.113281 201.542969 185.675781 187.511719 185.675781 C 173.480469 185.675781 162.046875 197.113281 162.046875 211.140625 C 162.046875 225.171875 173.480469 236.609375 187.511719 236.609375 Z M 187.511719 236.609375 " fill-opacity="1" fill-rule="evenodd"/></svg>