<svg xmlns="http://www.w3.org/2000/svg" xmlns:xlink="http://www.w3.org/1999/xlink" width="500" zoomAndPan="magnify" viewBox="0 0 375 374.999991" height="500" preserveAspectRatio="xMidYMid meet" version="1.0"><defs><clipPath id="4a110b198b"><path d="M 14.359375 94.480469 L 360.859375 94.480469 L 360.859375 280.480469 L 14.359375 280.480469 Z M 14.359375 94.480469 " clip-rule="nonzero"/></clipPath></defs><g clip-path="url(#4a110b198b)"><path fill="#ed1c24" d="M 60.886719 174.3125 L 73.890625 255.132812 L 88.214844 138.84375 L 108.261719 280.480469 L 123.242188 193.335938 L 138.441406 193.335938 L 143.371094 178.074219 L 147.675781 200.335938 L 165.511719 200.335938 L 173.957031 180.632812 L 176.769531 193.335938 L 185.65625 193.335938 L 188.664062 200.585938 L 360.769531 200.585938 L 360.769531 194.769531 L 192.566406 194.769531 L 189.558594 187.515625 L 181.445312 187.515625 L 175.742188 161.707031 L 161.671875 194.519531 L 152.472656 194.519531 L 144.785156 154.765625 L 134.191406 187.515625 L 118.351562 187.515625 L 108.824219 242.878906 L 87.824219 94.480469 L 73.113281 213.714844 L 62.089844 145.011719 L 50.195312 193.507812 L 14.445312 193.507812 L 14.445312 199.328125 L 54.773438 199.328125 Z M 60.886719 174.3125 " fill-opacity="1" fill-rule="nonzero"/></g></svg>